<svg width="512" height="512" viewBox="0 0 512 512" fill="none" xmlns="http://www.w3.org/2000/svg">
<rect width="512" height="512" fill="#020201"/>
<path d="M341.667 91C341.667 108.27 341.667 125.54 341.667 143.207C339.874 143.207 338.418 143.207 336.961 143.207C315.036 143.207 293.095 143.251 271.169 143.163C267.456 143.148 264.479 144.076 261.551 146.255C243.226 159.859 224.773 173.315 206.353 186.816C205.617 187.346 204.864 187.847 203.872 188.524C195.102 179.94 188.268 170.341 183.115 159.697C174.585 142.118 171.768 123.478 171.144 104.442C171 99.9662 171.048 95.4905 171 91C227.894 91 284.788 91 341.667 91Z" fill="#B22222"/>
<path d="M268.597 164.141C288.914 164.141 308.906 164.141 329.091 164.141C329.224 164.731 329.475 165.336 329.475 165.926C329.46 179.85 329.46 193.759 329.313 207.683C329.298 209.438 328.707 211.331 327.909 212.899C323.417 221.825 318.91 230.735 314.137 239.506C311.079 245.125 309.468 250.947 309.483 257.451C309.527 287.131 309.409 316.796 309.365 346.477C309.32 384.028 289.416 409.812 254.441 417.93C244.319 420.274 234.109 420.15 223.869 420.135C218.52 420.119 213.171 420.135 207.57 420.135C207.57 405.667 207.57 391.587 207.57 377.042C212.579 377.042 217.426 377.042 222.258 377.042C227.755 377.042 233.252 377.058 238.763 377.042C254.544 376.965 265.479 367.123 267.946 350.684C268.36 347.967 268.567 345.204 268.567 342.456C268.611 319.606 268.597 296.756 268.597 273.906C268.597 239.91 268.597 205.914 268.597 171.933C268.597 169.45 268.597 166.981 268.597 164.141Z" fill="#F5F3EF"/>
</svg>
