<svg width="183" height="40" viewBox="0 0 183 40" fill="none" xmlns="http://www.w3.org/2000/svg">
<g clip-path="url(#clip0_4538_54162)">
<path d="M0.00124 6C1.14204 6 2.28407 6 3.45339 6C3.45339 11.8203 3.45339 17.6177 3.45339 23.4546C5.98174 23.4546 8.48033 23.4546 11 23.4546C11 24.6487 11 25.8046 11 27C10.881 27 10.7681 27 10.6565 27C7.22669 27 3.79687 27 0.367039 26.9975C0.244279 26.9975 0.12276 26.9631 0 26.9453C0.00124 19.9639 0.00124 12.9813 0.00124 6Z" fill="#F5F3EF"/>
<path d="M127 0C127 1.41667 127 2.83333 127 4.28261C126.853 4.28261 126.733 4.28261 126.614 4.28261C124.815 4.28261 123.016 4.28623 121.217 4.27899C120.912 4.27778 120.668 4.35386 120.428 4.53261C118.925 5.64855 117.411 6.75242 115.9 7.8599C115.84 7.90338 115.778 7.94444 115.697 8C114.977 7.29589 114.417 6.50845 113.994 5.63527C113.294 4.19324 113.063 2.66425 113.012 1.10266C113 0.735507 113.004 0.368357 113 0C117.667 0 122.334 0 127 0Z" fill="#B22222"/>
<path d="M38.5517 26.9795C37.3442 26.9795 36.1818 26.9795 35 26.9795C35 19.9923 35 13.0204 35 6.00646C35.3029 6.00646 35.6057 6.00646 35.9073 6.00646C36.714 6.00646 37.5221 6.01155 38.3288 6.00265C38.5286 6.00011 38.6316 6.05982 38.7231 6.24657C41.2864 11.4387 43.8575 16.6258 46.4272 21.8141C46.4968 21.9551 46.5702 22.0948 46.6669 22.2841C47.1025 21.3707 47.5149 20.5081 47.9247 19.6442C50.0382 15.1927 52.1517 10.7425 54.2588 6.28849C54.3529 6.08904 54.4521 5.9963 54.6918 6.00011C55.6945 6.01536 56.6984 6.00646 57.7023 6.00646C57.799 6.00646 57.8943 6.01663 58 6.02298C58 13.0153 58 19.9872 58 26.977C56.8208 26.977 55.6584 26.977 54.4599 26.977C54.4599 22.772 54.4599 18.5733 54.4599 14.3746C54.4328 14.3657 54.4044 14.3568 54.3774 14.3479C54.3297 14.4419 54.2794 14.5359 54.2343 14.6312C52.3257 18.6559 50.4171 22.6805 48.5162 26.7089C48.4131 26.9287 48.2946 27.0037 48.0536 26.9999C47.127 26.9859 46.1991 26.9884 45.2725 26.9986C45.0792 27.0011 44.9851 26.9338 44.9026 26.7674C42.8613 22.6259 40.8148 18.4882 38.7695 14.3492C38.7244 14.2577 38.6703 14.1701 38.5517 14.0938C38.5517 18.3853 38.5517 22.6754 38.5517 26.9795Z" fill="#F5F3EF"/>
<path d="M108.376 17.9263C110.243 20.9292 112.108 23.9283 114 26.9707C113.875 26.9809 113.787 26.9936 113.7 26.9936C112.531 26.9949 111.364 26.9885 110.195 26.9999C109.972 27.0025 109.854 26.9223 109.741 26.7378C108.054 24.0047 106.356 21.2766 104.671 18.5422C104.535 18.3233 104.392 18.2343 104.135 18.2444C103.602 18.2648 103.068 18.2508 102.497 18.2508C102.497 21.1774 102.497 24.0683 102.497 26.977C101.318 26.977 100.177 26.977 99.0184 26.977C99.0184 22.9053 99.0184 18.8514 99.0184 14.7644C100.09 14.7644 101.147 14.7644 102.284 14.7644C102.189 14.6028 102.131 14.4972 102.066 14.3954C101.091 12.8507 100.115 11.3072 99.1438 9.76123C99.0779 9.65689 99.0083 9.52965 99.007 9.41258C98.9969 8.29286 99.0007 7.1744 99.0007 6.00632C99.1286 6.00632 99.2413 6.00632 99.3552 6.00632C101.542 6.00632 103.727 5.98851 105.914 6.01268C107.346 6.02795 108.717 6.35369 109.986 7.03953C112.136 8.20124 113.025 10.0704 112.922 12.46C112.807 15.1359 111.365 16.8091 108.923 17.7011C108.762 17.7596 108.6 17.8118 108.438 17.8678C108.427 17.8703 108.421 17.8805 108.376 17.9263ZM103.164 9.5271C104.25 11.269 105.286 12.9346 106.331 14.5951C106.37 14.6575 106.49 14.7122 106.562 14.702C107.213 14.613 107.841 14.4437 108.397 14.0722C109.784 13.1433 109.79 11.1367 108.395 10.2193C108.096 10.0221 107.754 9.85539 107.408 9.77268C106.883 9.64671 106.337 9.56146 105.798 9.53855C104.945 9.49911 104.091 9.5271 103.164 9.5271Z" fill="#F5F3EF"/>
<path d="M95 6C95 7.1644 95 8.30584 95 9.50085C91.507 9.50085 88.0191 9.50085 84.5172 9.50085C84.5172 11.2736 84.5172 12.994 84.5172 14.7515C87.4259 14.7515 90.3142 14.7515 93.2178 14.7515C93.2178 15.9286 93.2178 17.0688 93.2178 18.246C90.3231 18.246 87.4336 18.246 84.521 18.246C84.521 20.0008 84.521 21.72 84.521 23.4647C88.0077 23.4647 91.4802 23.4647 94.9834 23.4647C94.9834 24.6559 94.9834 25.8228 94.9834 27C90.3206 27 85.6718 27 81 27C81 19.9983 81 13.0106 81 6C85.6526 6 90.3116 6 95 6Z" fill="#F5F3EF"/>
<path d="M171.616 19.0368C170.956 19.7546 170.319 20.4405 169.697 21.1392C169.624 21.222 169.609 21.376 169.609 21.4981C169.604 23.1997 169.605 24.9013 169.605 26.6041C169.605 26.7199 169.605 26.8358 169.605 26.9732C168.392 26.9732 167.211 26.9732 166 26.9732C166 19.9951 166 13.0144 166 6.01722C167.19 6.01722 168.372 6.01722 169.595 6.01722C169.595 9.48783 169.595 12.9584 169.595 16.5156C169.72 16.3858 169.789 16.3247 169.847 16.2547C172.65 12.905 175.45 9.55401 178.258 6.20812C178.342 6.10758 178.503 6.01086 178.63 6.00959C180.015 5.99559 181.4 6.00068 182.785 6.00195C182.815 6.00195 182.846 6.0134 182.931 6.02995C179.963 9.58455 177.015 13.115 174.042 16.6759C177.016 20.0956 179.988 23.5115 183 26.9758C182.836 26.9847 182.733 26.9936 182.631 26.9936C181.29 26.9948 179.95 26.9872 178.609 26.9999C178.362 27.0025 178.207 26.9287 178.053 26.7416C176 24.27 173.938 21.8061 171.879 19.3397C171.802 19.2493 171.722 19.1602 171.616 19.0368Z" fill="#F5F3EF"/>
<path d="M27.4213 6C28.6259 6 29.7827 6 30.9796 6C30.9861 6.11547 30.999 6.22593 30.999 6.33638C31.0003 10.8712 31.0003 15.4061 30.999 19.9422C30.999 21.8688 30.4381 23.5834 28.9633 24.9427C27.8685 25.9531 26.5436 26.5279 25.0753 26.794C22.9012 27.1882 20.775 27.0564 18.7857 26.051C16.3208 24.8059 15.0218 22.814 15.0102 20.0991C14.9908 15.5316 15.005 10.9654 15.005 6.39788C15.005 6.27362 15.005 6.14811 15.005 6.00753C16.2019 6.00753 17.3665 6.00753 18.5712 6.00753C18.5712 6.13932 18.5712 6.26233 18.5712 6.38659C18.5712 10.8047 18.5712 15.2228 18.5712 19.6409C18.5712 21.604 19.6013 22.9006 21.5647 23.3549C22.9503 23.6762 24.3088 23.5645 25.5794 22.9131C26.8073 22.283 27.4251 21.2814 27.4238 19.9158C27.4174 15.4124 27.4213 10.9089 27.4213 6.40541C27.4213 6.28115 27.4213 6.15564 27.4213 6Z" fill="#F5F3EF"/>
<path d="M160.448 22.3896C161.298 23.2022 162.137 24.0032 163 24.8288C162.883 24.9571 162.809 25.0465 162.726 25.1256C158.63 29.0682 151.864 28.9399 147.929 24.834C146.349 23.1841 145.464 21.1765 145.147 18.9149C144.805 16.4874 145.037 14.1169 146.084 11.8838C147.59 8.67086 150.119 6.78121 153.551 6.18373C156.819 5.61477 159.778 6.3574 162.342 8.54903C162.555 8.73178 162.753 8.93266 162.932 9.10245C162.103 9.94488 161.291 10.7705 160.456 11.6181C159.881 11.0556 159.2 10.5307 158.403 10.2132C155.716 9.14133 153.175 9.36295 150.906 11.2656C149.571 12.3841 148.931 13.9277 148.697 15.641C148.47 17.3 148.595 18.9304 149.31 20.4637C150.381 22.7616 152.196 24.0382 154.66 24.344C156.866 24.6188 158.788 23.9526 160.416 22.4103C160.439 22.3896 160.47 22.3753 160.448 22.3896Z" fill="#F5F3EF"/>
<path d="M127 26.9918C129.83 19.6569 132.64 12.3738 135.485 5C138.34 12.3738 141.161 19.6594 144 26.993C143.393 26.993 142.831 26.993 142.268 26.993C141.657 26.993 141.046 26.9801 140.436 26.9995C140.207 27.0073 140.117 26.9205 140.043 26.7172C139.806 26.0594 139.54 25.4119 139.303 24.754C139.235 24.5662 139.14 24.5105 138.948 24.5118C136.635 24.5183 134.323 24.5183 132.01 24.5105C131.808 24.5092 131.729 24.5856 131.666 24.7656C131.43 25.4352 131.184 26.1021 130.925 26.7638C130.887 26.8597 130.757 26.9827 130.669 26.984C129.47 26.9969 128.271 26.9918 127 26.9918ZM135.521 14.1583C135.497 14.1609 135.472 14.1647 135.446 14.1673C134.608 16.5747 133.77 18.9835 132.925 21.4116C134.65 21.4116 136.328 21.4116 138.046 21.4116C137.2 18.9783 136.361 16.5683 135.521 14.1583Z" fill="#F5F3EF"/>
<path d="M121.006 6C122.673 6 124.313 6 125.968 6C125.979 6.04839 126 6.09805 126 6.14644C125.999 7.28867 125.999 8.42963 125.987 9.57187C125.985 9.71576 125.937 9.87111 125.872 9.99973C125.503 10.7319 125.133 11.4629 124.742 12.1823C124.491 12.6433 124.359 13.1208 124.36 13.6544C124.364 16.0891 124.354 18.5225 124.35 20.9573C124.347 24.0376 122.714 26.1527 119.845 26.8187C119.015 27.011 118.177 27.0008 117.337 26.9995C116.898 26.9982 116.459 26.9995 116 26.9995C116 25.8127 116 24.6577 116 23.4646C116.411 23.4646 116.808 23.4646 117.205 23.4646C117.656 23.4646 118.107 23.4658 118.559 23.4646C119.853 23.4582 120.75 22.6509 120.953 21.3024C120.987 21.0795 121.004 20.8528 121.004 20.6275C121.007 18.753 121.006 16.8786 121.006 15.0042C121.006 12.2154 121.006 9.4267 121.006 6.63924C121.006 6.4355 121.006 6.23303 121.006 6Z" fill="#F5F3EF"/>
<path d="M0 32H1.11298V34.9006H1.13221C1.21034 34.7613 1.30409 34.6369 1.41587 34.5274C1.52644 34.4179 1.64904 34.3245 1.78245 34.2475C1.91587 34.1704 2.05529 34.1122 2.20192 34.0717C2.34856 34.0311 2.49279 34.0108 2.63702 34.0108C3.03365 34.0108 3.38101 34.0892 3.67668 34.2475C3.97236 34.4057 4.21875 34.6207 4.41346 34.8952C4.60817 35.1697 4.75481 35.4902 4.85337 35.8567C4.95072 36.2231 5 36.6153 5 37.0318C5 37.4131 4.95673 37.7823 4.86779 38.142C4.78005 38.5017 4.64663 38.8181 4.46755 39.0926C4.28846 39.3671 4.0625 39.5876 3.78846 39.7525C3.51442 39.9175 3.19231 40 2.82212 40C2.65264 40 2.48197 39.9865 2.30889 39.9621C2.13582 39.9364 1.97236 39.8864 1.81611 39.8134C1.65986 39.7404 1.51803 39.6457 1.39183 39.5281C1.26442 39.4104 1.15865 39.2576 1.07452 39.0669H1.05529V39.8472H0V32ZM3.88702 37.0101C3.88702 36.7532 3.85817 36.5044 3.79928 36.2623C3.74038 36.0203 3.65264 35.8066 3.53606 35.62C3.41947 35.4334 3.27284 35.2833 3.09615 35.1697C2.92067 35.0561 2.71875 34.9993 2.49038 34.9993C2.02163 34.9993 1.66827 35.1819 1.43029 35.5483C1.19231 35.9148 1.07332 36.4016 1.07332 37.0101C1.07332 37.2955 1.10457 37.5619 1.16587 37.8066C1.22716 38.0527 1.32091 38.2623 1.44351 38.4381C1.56731 38.6139 1.71514 38.7532 1.88822 38.856C2.0601 38.9588 2.26082 39.0101 2.48918 39.0101C2.74279 39.0101 2.95793 38.952 3.13341 38.8343C3.30889 38.7167 3.45433 38.5652 3.56851 38.3786C3.68269 38.192 3.76322 37.9797 3.8125 37.7417C3.86298 37.5024 3.88702 37.259 3.88702 37.0101Z" fill="#B22222"/>
<path d="M13.467 38.5796C13.467 38.7341 13.4849 38.8439 13.5206 38.9103C13.5564 38.9767 13.6256 39.0093 13.7293 39.0093C13.7615 39.0093 13.8009 39.0093 13.845 39.0093C13.8903 39.0093 13.9416 39.0025 14 38.9876V39.8577C13.9606 39.8726 13.9118 39.8889 13.8497 39.9078C13.7877 39.9255 13.7257 39.9431 13.6613 39.9566C13.5969 39.9715 13.5326 39.9824 13.467 39.9892C13.4026 39.9959 13.3477 40 13.3024 40C13.0758 40 12.8886 39.9485 12.7408 39.8455C12.5917 39.7425 12.4951 39.5636 12.4498 39.3061C12.2304 39.5487 11.9609 39.7249 11.6401 39.8347C11.3205 39.9444 11.0117 40 10.7148 40C10.4882 40 10.2724 39.9648 10.0661 39.8956C9.85977 39.8265 9.67732 39.7235 9.51872 39.5866C9.36012 39.4511 9.23492 39.2776 9.14071 39.0689C9.04651 38.8602 9 38.6162 9 38.337C9 37.9846 9.05605 37.6987 9.16933 37.4778C9.28261 37.2582 9.43048 37.0847 9.61531 36.96C9.79895 36.8353 10.0064 36.7459 10.2354 36.6903C10.4643 36.6347 10.6957 36.5927 10.9282 36.5643C11.1285 36.5195 11.3193 36.4884 11.4994 36.4707C11.6807 36.4531 11.8404 36.4206 11.9788 36.3772C12.1171 36.3339 12.2268 36.2647 12.3079 36.1739C12.389 36.0818 12.4295 35.9449 12.4295 35.7606C12.4295 35.5993 12.3961 35.4665 12.3282 35.3648C12.2602 35.2618 12.1767 35.1832 12.0766 35.1276C11.9764 35.0721 11.8643 35.0355 11.7427 35.0178C11.6198 35.0002 11.503 34.9907 11.3933 34.9907C11.0832 34.9907 10.828 35.0639 10.6277 35.2117C10.4274 35.358 10.3141 35.5857 10.2891 35.8947H9.18483C9.20391 35.5274 9.28142 35.2225 9.41736 34.9813C9.5533 34.7386 9.72621 34.5448 9.93608 34.3971C10.146 34.2507 10.3833 34.1477 10.648 34.0881C10.9127 34.0298 11.1834 34 11.4612 34C11.7069 34 11.949 34.0298 12.1875 34.0881C12.4259 34.1464 12.6406 34.2426 12.8314 34.3741C13.0222 34.5055 13.1748 34.6763 13.2917 34.8864C13.4073 35.0951 13.4658 35.3513 13.4658 35.6521V38.5796H13.467ZM12.3616 36.9939C12.1934 37.1186 11.9871 37.1945 11.7415 37.2202C11.4958 37.246 11.2502 37.2853 11.0045 37.3354C10.8889 37.3571 10.7756 37.3883 10.6659 37.429C10.5562 37.4696 10.4596 37.5238 10.3749 37.5943C10.2902 37.6648 10.2247 37.7556 10.1758 37.8694C10.1269 37.9833 10.103 38.1215 10.103 38.2828C10.103 38.4224 10.1388 38.5403 10.2092 38.6352C10.2807 38.7301 10.3654 38.806 10.4655 38.8615C10.5657 38.9171 10.6754 38.955 10.7947 38.9767C10.9139 38.9984 11.0224 39.0093 11.119 39.0093C11.2418 39.0093 11.3742 38.9916 11.5161 38.9537C11.658 38.9171 11.7927 38.8548 11.918 38.7667C12.0444 38.6786 12.1493 38.5661 12.2328 38.4305C12.3162 38.295 12.3592 38.1283 12.3592 37.9291V36.9939H12.3616Z" fill="#B22222"/>
<path d="M18.0024 34.1571H19.0613V35.2876H19.0808C19.1137 35.1291 19.1783 34.9747 19.2734 34.8246C19.3684 34.6744 19.4842 34.5367 19.6194 34.4116C19.7547 34.2878 19.9046 34.1877 20.0703 34.1126C20.2348 34.0375 20.4029 34 20.5747 34C20.7063 34 20.7977 34.0042 20.8465 34.0111C20.8964 34.0181 20.9476 34.0264 21 34.0334V35.2765C20.9208 35.2612 20.8404 35.2487 20.7575 35.2375C20.6747 35.2264 20.5942 35.2209 20.515 35.2209C20.3237 35.2209 20.1434 35.264 19.9752 35.3502C19.8071 35.4364 19.6596 35.5643 19.5341 35.734C19.4086 35.9036 19.3099 36.1122 19.2368 36.3611C19.1637 36.61 19.1284 36.8964 19.1284 37.2204V40H18V34.1571H18.0024Z" fill="#B22222"/>
<path d="M25 32H26.113V34.9006H26.1322C26.2103 34.7613 26.3041 34.6369 26.4159 34.5274C26.5264 34.4179 26.649 34.3245 26.7825 34.2475C26.9159 34.1704 27.0553 34.1122 27.2019 34.0717C27.3486 34.0311 27.4928 34.0108 27.637 34.0108C28.0337 34.0108 28.381 34.0892 28.6767 34.2475C28.9724 34.4057 29.2187 34.6207 29.4135 34.8952C29.6082 35.1697 29.7548 35.4902 29.8534 35.8567C29.9507 36.2231 30 36.6153 30 37.0318C30 37.4131 29.9567 37.7823 29.8678 38.142C29.78 38.5017 29.6466 38.8181 29.4675 39.0926C29.2885 39.3671 29.0625 39.5876 28.7885 39.7525C28.5144 39.9175 28.1923 40 27.8221 40C27.6526 40 27.482 39.9865 27.3089 39.9621C27.1358 39.9364 26.9724 39.8864 26.8161 39.8134C26.6599 39.7404 26.518 39.6457 26.3918 39.5281C26.2644 39.4104 26.1587 39.2576 26.0745 39.0669H26.0553V39.8472H25V32ZM28.887 37.0101C28.887 36.7532 28.8582 36.5044 28.7993 36.2623C28.7404 36.0203 28.6526 35.8066 28.5361 35.62C28.4195 35.4334 28.2728 35.2833 28.0962 35.1697C27.9207 35.0561 27.7187 34.9993 27.4904 34.9993C27.0216 34.9993 26.6683 35.1819 26.4303 35.5483C26.1923 35.9148 26.0733 36.4016 26.0733 37.0101C26.0733 37.2955 26.1046 37.5619 26.1659 37.8066C26.2272 38.0527 26.3209 38.2623 26.4435 38.4381C26.5673 38.6139 26.7151 38.7532 26.8882 38.856C27.0601 38.9588 27.2608 39.0101 27.4892 39.0101C27.7428 39.0101 27.9579 38.952 28.1334 38.8343C28.3089 38.7167 28.4543 38.5652 28.5685 38.3786C28.6827 38.192 28.7632 37.9797 28.8125 37.7417C28.863 37.5024 28.887 37.259 28.887 37.0101Z" fill="#B22222"/>
<path d="M35.1507 37.3272C35.1507 37.548 35.1792 37.7607 35.2362 37.9652C35.2933 38.1711 35.3788 38.35 35.4929 38.5044C35.607 38.6588 35.7508 38.7821 35.9256 38.8729C36.1005 38.965 36.3088 39.0111 36.5506 39.0111C36.8866 39.0111 37.1569 38.9325 37.3615 38.774C37.5661 38.6168 37.7186 38.3798 37.8203 38.0641H38.9077C38.847 38.373 38.7428 38.648 38.5953 38.8891C38.4477 39.1316 38.2691 39.3348 38.0608 39.5001C37.8525 39.6654 37.6194 39.79 37.3603 39.874C37.1011 39.958 36.8308 40 36.5493 40C36.1402 40 35.7768 39.9268 35.4607 39.7792C35.1445 39.6329 34.8779 39.427 34.6597 39.1628C34.4414 38.8986 34.2765 38.583 34.1662 38.2159C34.0558 37.8487 34 37.445 34 37.0047C34 36.601 34.0583 36.2177 34.1761 35.8546C34.2939 35.4915 34.4613 35.1718 34.6795 34.8968C34.8977 34.6218 35.1618 34.4037 35.4706 34.2425C35.7793 34.0813 36.129 34 36.5183 34C36.9275 34 37.2958 34.0935 37.6219 34.2804C37.948 34.4674 38.2183 34.7153 38.4328 35.0228C38.6473 35.3317 38.8036 35.6853 38.9015 36.0849C38.9982 36.4845 39.0243 36.8977 38.9772 37.3231H35.1507V37.3272ZM37.8302 36.5008C37.8166 36.303 37.7781 36.112 37.7136 35.9277C37.6504 35.7449 37.5624 35.585 37.452 35.4495C37.3417 35.3141 37.2065 35.2043 37.049 35.119C36.8916 35.035 36.7142 34.993 36.5196 34.993C36.3187 34.993 36.1352 35.0309 35.9703 35.1082C35.8054 35.1854 35.6653 35.291 35.5475 35.4279C35.4297 35.5633 35.3354 35.7232 35.2647 35.9061C35.1941 36.089 35.1556 36.2881 35.1494 36.5008H37.8302Z" fill="#B22222"/>
<path d="M43.0024 34.1571H44.0613V35.2876H44.0808C44.1137 35.1291 44.1783 34.9747 44.2734 34.8246C44.3684 34.6744 44.4842 34.5367 44.6194 34.4116C44.7547 34.2878 44.9045 34.1877 45.0703 34.1126C45.2348 34.0375 45.4029 34 45.5747 34C45.7063 34 45.7977 34.0042 45.8465 34.0111C45.8964 34.0181 45.9476 34.0264 46 34.0334V35.2765C45.9208 35.2612 45.8404 35.2487 45.7575 35.2375C45.6747 35.2264 45.5942 35.2209 45.515 35.2209C45.3237 35.2209 45.1434 35.264 44.9752 35.3502C44.8071 35.4364 44.6596 35.5643 44.5341 35.734C44.4086 35.9036 44.3099 36.1122 44.2368 36.3611C44.1637 36.61 44.1283 36.8964 44.1283 37.2204V40H43V34.1571H43.0024Z" fill="#B22222"/>
<path d="M50 32H51.2551V34.9691H51.2768C51.4313 34.7071 51.6603 34.4892 51.9653 34.3141C52.2703 34.1389 52.6091 34.0507 52.9845 34.0507C53.608 34.0507 54.1 34.2148 54.4606 34.5444C54.8197 34.8726 55 35.3663 55 36.0228V40H53.7449V36.3579C53.73 35.9028 53.6351 35.5718 53.4589 35.3663C53.2827 35.1608 53.0076 35.0588 52.6335 35.0588C52.4207 35.0588 52.2296 35.0974 52.0602 35.176C51.8908 35.2546 51.7484 35.3622 51.6305 35.5015C51.5126 35.6394 51.4218 35.8021 51.3554 35.9883C51.289 36.1745 51.2564 36.373 51.2564 36.5827V40H50.0014L50 32Z" fill="#B22222"/>
<path d="M61.5 40C61.1038 40 60.7512 39.9242 60.441 39.7738C60.1309 39.6235 59.8691 39.4163 59.6557 39.1521C59.441 38.888 59.2783 38.5725 59.1675 38.2054C59.0554 37.8384 59 37.4348 59 36.9946C59 36.5612 59.0554 36.1616 59.1675 35.7946C59.2795 35.4275 59.4422 35.112 59.6557 34.8479C59.8691 34.5837 60.1309 34.3765 60.441 34.2262C60.7512 34.0758 61.1038 34 61.5 34C61.8962 34 62.2488 34.0758 62.559 34.2262C62.8691 34.3765 63.1309 34.5837 63.3443 34.8479C63.5578 35.112 63.7217 35.4275 63.8325 35.7946C63.9446 36.1616 64 36.5612 64 36.9946C64 37.4348 63.9434 37.8384 63.8325 38.2054C63.7205 38.5725 63.5578 38.888 63.3443 39.1521C63.1297 39.4163 62.8679 39.6235 62.559 39.7738C62.2488 39.9242 61.8962 40 61.5 40ZM61.5 39.0099C61.7429 39.0099 61.954 38.9517 62.1321 38.8339C62.3113 38.716 62.4575 38.563 62.5731 38.372C62.6875 38.181 62.7724 37.967 62.8266 37.7287C62.8809 37.4903 62.908 37.2465 62.908 36.9973C62.908 36.7549 62.8809 36.5124 62.8266 36.2713C62.7724 36.0302 62.6875 35.8149 62.5731 35.628C62.4575 35.4411 62.3113 35.288 62.1321 35.1716C61.9528 35.0537 61.7429 34.9955 61.5 34.9955C61.2571 34.9955 61.046 35.0537 60.8679 35.1716C60.6887 35.2894 60.5425 35.4411 60.4269 35.628C60.3125 35.8149 60.2276 36.0302 60.1733 36.2713C60.1191 36.5138 60.092 36.7549 60.092 36.9973C60.092 37.2465 60.1191 37.4903 60.1733 37.7287C60.2276 37.967 60.3125 38.1824 60.4269 38.372C60.5413 38.563 60.6887 38.7174 60.8679 38.8339C61.0472 38.9503 61.2571 39.0099 61.5 39.0099Z" fill="#B22222"/>
<path d="M74 39.8414H72.7666V39.0278H72.7449C72.5904 39.3213 72.3613 39.5577 72.0564 39.7344C71.7514 39.911 71.441 40 71.1252 40C70.3757 40 69.8349 39.8095 69.5015 39.4298C69.1667 39.0501 69 38.4743 69 37.7065V34H70.2551V37.5828C70.2551 38.0946 70.35 38.4562 70.5411 38.6676C70.7322 38.879 71.0005 38.9847 71.3448 38.9847C71.6091 38.9847 71.83 38.943 72.0062 38.8609C72.1824 38.7775 72.3261 38.6676 72.4359 38.5271C72.5457 38.388 72.6243 38.2198 72.6731 38.0236C72.7205 37.8275 72.7449 37.6175 72.7449 37.3908V34H74V39.8414Z" fill="#B22222"/>
<path d="M78.2376 38.0199C78.2737 38.3872 78.4116 38.6447 78.6511 38.7911C78.8906 38.9374 79.1769 39.0106 79.51 39.0106C79.6264 39.0106 79.7576 39.0011 79.9074 38.9835C80.0559 38.9659 80.1951 38.9307 80.3262 38.8791C80.456 38.8276 80.563 38.7531 80.6473 38.6528C80.7303 38.5539 80.7691 38.4238 80.761 38.2625C80.7543 38.1012 80.6955 37.9684 80.5871 37.8654C80.4787 37.7624 80.3382 37.6797 80.1683 37.6173C79.9984 37.555 79.8044 37.5021 79.5863 37.4574C79.3682 37.414 79.1474 37.3653 78.9227 37.3138C78.6912 37.2623 78.4678 37.1999 78.2537 37.1267C78.0396 37.0535 77.8483 36.9546 77.677 36.8299C77.5071 36.7052 77.3706 36.5453 77.2689 36.3515C77.1672 36.1577 77.1164 35.9164 77.1164 35.6304C77.1164 35.3214 77.19 35.0639 77.3398 34.8539C77.4884 34.6451 77.677 34.4757 77.9058 34.347C78.1346 34.2182 78.3875 34.1288 78.6671 34.0773C78.9454 34.0258 79.213 34 79.4659 34C79.7562 34 80.0332 34.0312 80.2968 34.0935C80.5617 34.1559 80.8012 34.2575 81.0139 34.3958C81.228 34.5354 81.4046 34.717 81.5464 34.9406C81.6883 35.1642 81.7766 35.4339 81.8127 35.7497H80.5189C80.4613 35.4488 80.3249 35.2469 80.1108 35.1439C79.8967 35.0409 79.6519 34.9894 79.3776 34.9894C79.2906 34.9894 79.1876 34.9962 79.0672 35.0111C78.9481 35.026 78.8357 35.0531 78.73 35.0937C78.6243 35.1344 78.536 35.1927 78.4637 35.2699C78.3915 35.3472 78.3554 35.4475 78.3554 35.5722C78.3554 35.7267 78.4075 35.8514 78.5132 35.9462C78.6176 36.0425 78.7554 36.1211 78.9267 36.1834C79.0979 36.2458 79.2906 36.2986 79.5087 36.3433C79.7268 36.3881 79.9502 36.4355 80.183 36.487C80.4078 36.5385 80.6286 36.6009 80.8467 36.674C81.0648 36.7472 81.2574 36.8462 81.4287 36.9709C81.5986 37.0956 81.7364 37.2541 81.8421 37.4439C81.9465 37.635 82 37.8694 82 38.1486C82 38.4861 81.9237 38.7734 81.7712 39.0079C81.6187 39.2424 81.422 39.4335 81.1785 39.5812C80.935 39.7276 80.666 39.8346 80.369 39.9011C80.072 39.9675 79.7776 40 79.4886 40C79.1341 40 78.8049 39.9593 78.5052 39.8794C78.2042 39.7981 77.9433 39.6761 77.7225 39.5107C77.5017 39.3454 77.3278 39.1407 77.2007 38.8941C77.0736 38.6487 77.0067 38.356 77 38.0185H78.2376V38.0199Z" fill="#B22222"/>
<path d="M87.1494 37.3272C87.1494 37.548 87.178 37.7607 87.235 37.9652C87.292 38.1711 87.3776 38.35 87.4917 38.5044C87.6057 38.6588 87.7496 38.7821 87.9244 38.8729C88.0992 38.965 88.3075 39.0111 88.5493 39.0111C88.8854 39.0111 89.1557 38.9325 89.3603 38.774C89.5649 38.6168 89.7174 38.3798 89.819 38.0641H90.9065C90.8457 38.373 90.7416 38.648 90.594 38.8891C90.4465 39.1316 90.2679 39.3348 90.0596 39.5001C89.8513 39.6654 89.6182 39.79 89.359 39.874C89.0999 39.958 88.8296 40 88.5481 40C88.1389 40 87.7756 39.9268 87.4607 39.7792C87.1445 39.6329 86.8779 39.427 86.6597 39.1628C86.4414 38.8986 86.2765 38.583 86.1662 38.2159C86.0558 37.8487 86 37.445 86 37.0047C86 36.601 86.0583 36.2177 86.1761 35.8546C86.2939 35.4915 86.4613 35.1718 86.6795 34.8968C86.8977 34.6218 87.1618 34.4037 87.4706 34.2425C87.7793 34.0813 88.129 34 88.5183 34C88.9275 34 89.2958 34.0935 89.6219 34.2804C89.948 34.4674 90.2183 34.7153 90.4328 35.0228C90.6473 35.3317 90.8036 35.6853 90.9015 36.0849C90.9982 36.4845 91.0243 36.8977 90.9772 37.3231H87.1494V37.3272ZM89.829 36.5008C89.8153 36.303 89.7769 36.112 89.7136 35.9277C89.6492 35.7449 89.5624 35.585 89.452 35.4495C89.3417 35.3141 89.2065 35.2043 89.049 35.119C88.8916 35.035 88.7155 34.993 88.5196 34.993C88.3187 34.993 88.1352 35.0309 87.9703 35.1082C87.8054 35.1854 87.664 35.291 87.5475 35.4279C87.4297 35.5633 87.3354 35.7232 87.2647 35.9061C87.1941 36.089 87.1556 36.2881 87.1494 36.5008H89.829Z" fill="#B22222"/>
<path d="M63 27V6H70.5596C72.5321 6 74.1198 6.47847 75.3263 7.43412C76.5316 8.39106 77.1343 9.71614 77.1343 11.4119C77.1343 12.3984 76.9049 13.2848 76.4474 14.0737C75.9886 14.8626 75.3613 15.4744 74.5643 15.908V15.967C75.6801 16.2826 76.5316 16.9034 77.1187 17.8309C77.7058 18.7583 78 19.7832 78 20.9069C78 22.899 77.3027 24.4114 75.9082 25.4466C74.5137 26.4818 72.7706 27 70.6788 27H63ZM66.8543 14.5778H70.5894C71.4059 14.5778 72.0487 14.3264 72.5166 13.8235C72.9844 13.3207 73.219 12.6755 73.219 11.8866C73.219 11.1182 72.9844 10.4922 72.5166 10.0086C72.0487 9.5263 71.3852 9.28386 70.5298 9.28386H66.8543V14.5778ZM66.8543 23.7161H70.9782C71.9347 23.7161 72.6864 23.4352 73.2346 22.8734C73.7828 22.3115 74.0562 21.5778 74.0562 20.6696C74.0562 19.7819 73.7828 19.0572 73.2346 18.4953C72.6864 17.9335 71.9347 17.6526 70.9782 17.6526H66.8543V23.7161Z" fill="#F5F3EF"/>
</g>
<defs>
<clipPath id="clip0_4538_54162">
<rect width="183" height="40" fill="white"/>
</clipPath>
</defs>
</svg>
