<svg width="32" height="40" viewBox="0 0 32 40" fill="none" xmlns="http://www.w3.org/2000/svg">
<g clip-path="url(#clip0_4538_55008)">
<path d="M16 0C11.758 0.00487521 7.69101 1.77055 4.69144 4.90962C1.69186 8.04869 0.00465856 12.3048 0 16.7441C0 25.5883 13.44 37.7295 14.9664 39.0858L16 40L17.0336 39.0858C18.56 37.7295 32 25.5883 32 16.7441C31.9953 12.3048 30.3081 8.04869 27.3086 4.90962C24.309 1.77055 20.242 0.00487521 16 0ZM16 25.1162C14.4177 25.1162 12.871 24.6251 11.5554 23.7052C10.2398 22.7853 9.21447 21.4777 8.60896 19.948C8.00346 18.4182 7.84504 16.7348 8.15372 15.1108C8.4624 13.4868 9.22433 11.995 10.3431 10.8242C11.462 9.65332 12.8874 8.85596 14.4393 8.53292C15.9911 8.20988 17.5997 8.37568 19.0615 9.00934C20.5233 9.643 21.7727 10.7161 22.6518 12.0928C23.5308 13.4696 24 15.0883 24 16.7441C23.9975 18.9637 23.1538 21.0916 21.654 22.6611C20.1543 24.2306 18.121 25.1135 16 25.1162Z" fill="#B22222"/>
<path d="M17 21.6641C19.7614 21.6641 22 19.4255 22 16.6641C22 13.9026 19.7614 11.6641 17 11.6641C14.2386 11.6641 12 13.9026 12 16.6641C12 19.4255 14.2386 21.6641 17 21.6641Z" fill="#B22222"/>
<circle cx="16" cy="16" r="12" fill="#F5F3EF"/>
<path d="M18.8863 10C18.8863 10.6296 18.8863 11.2593 18.8863 11.9034C18.8209 11.9034 18.7678 11.9034 18.7147 11.9034C17.9154 11.9034 17.1154 11.905 16.3161 11.9018C16.1807 11.9012 16.0722 11.9351 15.9654 12.0145C15.2973 12.5105 14.6246 13.0011 13.953 13.4933C13.9261 13.5126 13.8987 13.5309 13.8625 13.5556C13.5428 13.2426 13.2936 12.8926 13.1058 12.5046C12.7948 11.8637 12.6921 11.1841 12.6693 10.4901C12.6641 10.3269 12.6658 10.1637 12.6641 10C14.7383 10 16.8126 10 18.8863 10Z" fill="#B22222"/>
<path d="M16.2171 12.6641C16.9578 12.6641 17.6867 12.6641 18.4226 12.6641C18.4275 12.6856 18.4366 12.7076 18.4366 12.7291C18.4361 13.2368 18.4361 13.7439 18.4307 14.2516C18.4302 14.3155 18.4086 14.3846 18.3795 14.4417C18.2158 14.7671 18.0514 15.092 17.8774 15.4118C17.7659 15.6166 17.7072 15.8289 17.7077 16.066C17.7094 17.1481 17.705 18.2296 17.7034 19.3117C17.7018 20.6808 16.9762 21.6208 15.701 21.9168C15.332 22.0023 14.9597 21.9977 14.5864 21.9972C14.3914 21.9966 14.1964 21.9972 13.9922 21.9972C13.9922 21.4697 13.9922 20.9564 13.9922 20.4261C14.1748 20.4261 14.3515 20.4261 14.5277 20.4261C14.7281 20.4261 14.9285 20.4267 15.1294 20.4261C15.7048 20.4233 16.1034 20.0645 16.1934 19.4651C16.2085 19.3661 16.216 19.2653 16.216 19.1652C16.2176 18.3321 16.2171 17.499 16.2171 16.6659C16.2171 15.4265 16.2171 14.187 16.2171 12.9482C16.2171 12.8576 16.2171 12.7676 16.2171 12.6641Z" fill="#B22222"/>
</g>
<defs>
<clipPath id="clip0_4538_55008">
<rect width="32" height="40" fill="white"/>
</clipPath>
</defs>
</svg>
