<svg width="120" height="40" viewBox="0 0 120 40" fill="none" xmlns="http://www.w3.org/2000/svg">
<path d="M51.1916 20.5107C51.1916 26.0628 46.8481 30.1541 41.5177 30.1541C36.1872 30.1541 31.8438 26.0628 31.8438 20.5107C31.8438 14.9194 36.1872 10.8672 41.5177 10.8672C46.8481 10.8672 51.1916 14.9194 51.1916 20.5107ZM46.9568 20.5107C46.9568 17.0411 44.4394 14.6672 41.5177 14.6672C38.5959 14.6672 36.0785 17.0411 36.0785 20.5107C36.0785 23.9454 38.5959 26.3541 41.5177 26.3541C44.4394 26.3541 46.9568 23.9411 46.9568 20.5107Z" fill="#EA4335"/>
<path d="M72.0588 20.5107C72.0588 26.0628 67.7153 30.1541 62.3849 30.1541C57.0544 30.1541 52.7109 26.0628 52.7109 20.5107C52.7109 14.9237 57.0544 10.8672 62.3849 10.8672C67.7153 10.8672 72.0588 14.9194 72.0588 20.5107ZM67.824 20.5107C67.824 17.0411 65.3066 14.6672 62.3849 14.6672C59.4631 14.6672 56.9457 17.0411 56.9457 20.5107C56.9457 23.9454 59.4631 26.3541 62.3849 26.3541C65.3066 26.3541 67.824 23.9411 67.824 20.5107Z" fill="#FBBC05"/>
<path d="M92.0651 11.4498V28.7628C92.0651 35.8846 87.8651 38.7933 82.8999 38.7933C78.226 38.7933 75.4129 35.6672 74.352 33.1107L78.039 31.5759C78.6955 33.1454 80.3042 34.9976 82.8955 34.9976C86.0738 34.9976 88.0433 33.0368 88.0433 29.3454V27.9585H87.8955C86.9477 29.1281 85.1216 30.1498 82.8173 30.1498C77.9955 30.1498 73.5781 25.9498 73.5781 20.5454C73.5781 15.102 77.9955 10.8672 82.8173 10.8672C85.1173 10.8672 86.9433 11.8889 87.8955 13.0237H88.0433V11.4541H92.0651V11.4498ZM88.3433 20.5454C88.3433 17.1498 86.0781 14.6672 83.1955 14.6672C80.2738 14.6672 77.826 17.1498 77.826 20.5454C77.826 23.9063 80.2738 26.3541 83.1955 26.3541C86.0781 26.3541 88.3433 23.9063 88.3433 20.5454Z" fill="#4285F4"/>
<path d="M98.6929 1.30469V29.5656H94.5625V1.30469H98.6929Z" fill="#34A853"/>
<path d="M114.786 23.6889L118.073 25.8802C117.012 27.4498 114.456 30.1541 110.038 30.1541C104.56 30.1541 100.469 25.9194 100.469 20.5107C100.469 14.7759 104.595 10.8672 109.564 10.8672C114.569 10.8672 117.017 14.8498 117.817 17.002L118.256 18.0976L105.364 23.4368C106.351 25.3715 107.886 26.3585 110.038 26.3585C112.195 26.3585 113.69 25.2976 114.786 23.6889ZM104.669 20.2194L113.286 16.6411C112.812 15.4368 111.386 14.5976 109.708 14.5976C107.556 14.5976 104.56 16.4976 104.669 20.2194Z" fill="#EA4335"/>
<path d="M16.2104 18.0031V13.9118H29.9973C30.1321 14.6249 30.2017 15.4683 30.2017 16.3814C30.2017 19.451 29.3626 23.2466 26.6582 25.9509C24.0278 28.6901 20.6669 30.1509 16.2147 30.1509C7.96257 30.1509 1.02344 23.4292 1.02344 15.177C1.02344 6.92486 7.96257 0.203125 16.2147 0.203125C20.78 0.203125 24.0321 1.99443 26.4756 4.32921L23.5887 7.21617C21.8365 5.57269 19.4626 4.29443 16.2104 4.29443C10.1843 4.29443 5.47126 9.15095 5.47126 15.177C5.47126 21.2031 10.1843 26.0596 16.2104 26.0596C20.1191 26.0596 22.3452 24.4901 23.7713 23.064C24.9278 21.9075 25.6887 20.2553 25.9887 17.9988L16.2104 18.0031Z" fill="#4285F4"/>
</svg>
