<svg width="149" height="38" viewBox="0 0 149 38" fill="none" xmlns="http://www.w3.org/2000/svg">
<g clip-path="url(#clip0_4538_54630)">
<path d="M39.2318 13.7109H54.2173V16.5068H48.325V32.224H45.0849V16.5068H39.2188V13.7109H39.2318ZM53.5772 18.8193H56.3469V21.4062H56.3992C56.4906 21.0404 56.6605 20.6876 56.9087 20.3479C57.157 20.0083 57.4574 19.6816 57.8102 19.4073C58.163 19.1198 58.5549 18.8977 58.986 18.7148C59.4172 18.545 59.8614 18.4535 60.3056 18.4535C60.6453 18.4535 60.8935 18.4666 61.0242 18.4797C61.1548 18.4927 61.2855 18.5188 61.4292 18.5319V21.3801C61.2202 21.3409 61.0111 21.3148 60.789 21.2886C60.5669 21.2625 60.3579 21.2494 60.1488 21.2494C59.6524 21.2494 59.182 21.3539 58.7378 21.5499C58.2936 21.7459 57.9147 22.0464 57.5881 22.4253C57.2615 22.8172 57.0002 23.2876 56.8042 23.8624C56.6082 24.4373 56.5168 25.0905 56.5168 25.8352V32.2109H53.5641V18.8193H53.5772ZM75.0037 32.224H72.1033V30.3557H72.051C71.6852 31.0351 71.1495 31.5708 70.431 31.9758C69.7124 32.3808 68.9808 32.5898 68.2361 32.5898C66.4723 32.5898 65.1919 32.1587 64.408 31.2833C63.6241 30.408 63.2322 29.0884 63.2322 27.3246V18.8193H66.1849V27.0372C66.1849 28.2131 66.407 29.0492 66.8642 29.5326C67.3084 30.016 67.9486 30.2643 68.7587 30.2643C69.3858 30.2643 69.8953 30.1728 70.3134 29.9768C70.7315 29.7809 71.0711 29.5326 71.3194 29.206C71.5807 28.8924 71.7636 28.5005 71.8812 28.0563C71.9988 27.6121 72.051 27.1287 72.051 26.6061V18.8324H75.0037V32.224ZM80.0337 27.9256C80.1252 28.7879 80.4518 29.3889 81.0136 29.7417C81.5885 30.0813 82.2678 30.2643 83.0648 30.2643C83.3392 30.2643 83.6527 30.2381 84.0055 30.1989C84.3582 30.1597 84.6979 30.0683 84.9984 29.9507C85.312 29.8331 85.5602 29.6502 85.7692 29.415C85.9652 29.1799 86.0567 28.8794 86.0436 28.5005C86.0305 28.1216 85.8868 27.808 85.6255 27.5729C85.3642 27.3246 85.0376 27.1417 84.6326 26.9849C84.2276 26.8412 83.7703 26.7106 83.2477 26.6061C82.7251 26.5015 82.2025 26.384 81.6668 26.2664C81.1181 26.1488 80.5824 25.992 80.0729 25.8222C79.5634 25.6523 79.1061 25.4172 78.7011 25.1167C78.2961 24.8292 77.9695 24.4503 77.7343 23.9931C77.4861 23.5358 77.3685 22.974 77.3685 22.2946C77.3685 21.563 77.5514 20.962 77.9041 20.4655C78.2569 19.9691 78.7142 19.5771 79.2498 19.2766C79.7985 18.9761 80.3995 18.7671 81.0659 18.6364C81.7322 18.5188 82.3723 18.4535 82.9733 18.4535C83.6658 18.4535 84.3321 18.5319 84.9592 18.6756C85.5863 18.8193 86.1612 19.0545 86.6707 19.3942C87.1803 19.7208 87.5983 20.152 87.938 20.6746C88.2777 21.1972 88.4868 21.8373 88.5782 22.5821H85.4949C85.3512 21.8765 85.0376 21.3931 84.5281 21.158C84.0185 20.9097 83.4306 20.7922 82.7774 20.7922C82.5683 20.7922 82.3201 20.8052 82.0327 20.8444C81.7452 20.8836 81.4839 20.9489 81.2226 21.0404C80.9744 21.1318 80.7654 21.2756 80.5825 21.4585C80.4126 21.6414 80.3212 21.8765 80.3212 22.177C80.3212 22.5429 80.4518 22.8303 80.7 23.0524C80.9483 23.2745 81.2749 23.4574 81.6799 23.6142C82.0849 23.7579 82.5422 23.8886 83.0648 23.9931C83.5874 24.0976 84.1231 24.2152 84.6718 24.3328C85.2075 24.4503 85.73 24.6071 86.2526 24.777C86.7752 24.9468 87.2325 25.182 87.6375 25.4825C88.0425 25.783 88.3692 26.1488 88.6174 26.593C88.8656 27.0372 88.9963 27.599 88.9963 28.2523C88.9963 29.0492 88.8134 29.7155 88.4476 30.2773C88.0817 30.826 87.6114 31.2833 87.0365 31.623C86.4617 31.9627 85.8084 32.224 85.1029 32.3808C84.3974 32.5376 83.6919 32.616 82.9995 32.616C82.1502 32.616 81.3663 32.5245 80.6478 32.3285C79.9292 32.1325 79.3021 31.8451 78.7795 31.4662C78.2569 31.0743 77.8388 30.5909 77.5383 30.016C77.2378 29.4412 77.081 28.7487 77.0549 27.9518H80.0337V27.9256ZM89.7802 18.8193H92.0143V14.7953H94.967V18.8193H97.6322V21.0273H94.967V28.1869C94.967 28.5005 94.98 28.7618 95.0062 28.997C95.0323 29.2191 95.0976 29.415 95.1891 29.5718C95.2805 29.7286 95.4243 29.8462 95.6202 29.9246C95.8162 30.003 96.0644 30.0422 96.4041 30.0422C96.6132 30.0422 96.8222 30.0422 97.0312 30.0291C97.2403 30.016 97.4493 29.9899 97.6584 29.9376V32.224C97.3317 32.2632 97.0051 32.2893 96.7046 32.3285C96.3911 32.3677 96.0775 32.3808 95.7509 32.3808C94.967 32.3808 94.3399 32.3024 93.8695 32.1587C93.3992 32.015 93.0203 31.7929 92.759 31.5054C92.4846 31.218 92.3148 30.8652 92.2103 30.4341C92.1188 30.003 92.0535 29.5065 92.0404 28.9578V21.0535H89.8063V18.8193H89.7802ZM99.7226 18.8193H102.519V20.6354H102.571C102.989 19.8515 103.564 19.3027 104.308 18.9631C105.053 18.6234 105.85 18.4535 106.725 18.4535C107.784 18.4535 108.698 18.6364 109.482 19.0153C110.266 19.3811 110.919 19.8907 111.442 20.5439C111.965 21.1972 112.343 21.9549 112.605 22.8172C112.866 23.6795 112.997 24.6071 112.997 25.587C112.997 26.4885 112.879 27.3638 112.644 28.2C112.409 29.0492 112.056 29.7939 111.586 30.4472C111.115 31.1004 110.514 31.6099 109.783 32.0019C109.051 32.3938 108.202 32.5898 107.209 32.5898C106.778 32.5898 106.347 32.5506 105.915 32.4722C105.484 32.3938 105.066 32.2632 104.674 32.0934C104.282 31.9235 103.903 31.7014 103.577 31.427C103.237 31.1527 102.963 30.8391 102.728 30.4864H102.675V37.1756H99.7226V18.8193ZM110.044 25.5347C110.044 24.9337 109.966 24.3458 109.809 23.771C109.652 23.1961 109.417 22.6996 109.103 22.2554C108.79 21.8112 108.398 21.4585 107.94 21.1972C107.47 20.9359 106.934 20.7922 106.334 20.7922C105.092 20.7922 104.152 21.2233 103.525 22.0856C102.897 22.9479 102.584 24.0976 102.584 25.5347C102.584 26.2141 102.662 26.8412 102.832 27.4161C103.002 27.991 103.237 28.4874 103.577 28.9055C103.903 29.3236 104.295 29.6502 104.753 29.8854C105.21 30.1336 105.746 30.2512 106.347 30.2512C107.026 30.2512 107.588 30.1075 108.058 29.8331C108.528 29.5587 108.907 29.1929 109.208 28.7618C109.508 28.3176 109.73 27.8211 109.861 27.2593C109.979 26.6975 110.044 26.1227 110.044 25.5347ZM115.257 13.7109H118.21V16.5068H115.257V13.7109ZM115.257 18.8193H118.21V32.224H115.257V18.8193ZM120.849 13.7109H123.801V32.224H120.849V13.7109ZM132.855 32.5898C131.784 32.5898 130.83 32.4069 129.994 32.0542C129.158 31.7014 128.453 31.2049 127.865 30.5909C127.29 29.9638 126.846 29.2191 126.545 28.3568C126.245 27.4945 126.088 26.5407 126.088 25.5086C126.088 24.4895 126.245 23.5489 126.545 22.6866C126.846 21.8243 127.29 21.0796 127.865 20.4525C128.439 19.8253 129.158 19.3419 129.994 18.9892C130.83 18.6364 131.784 18.4535 132.855 18.4535C133.927 18.4535 134.88 18.6364 135.717 18.9892C136.553 19.3419 137.258 19.8384 137.846 20.4525C138.421 21.0796 138.865 21.8243 139.166 22.6866C139.466 23.5489 139.623 24.4895 139.623 25.5086C139.623 26.5407 139.466 27.4945 139.166 28.3568C138.865 29.2191 138.421 29.9638 137.846 30.5909C137.271 31.218 136.553 31.7014 135.717 32.0542C134.88 32.4069 133.927 32.5898 132.855 32.5898ZM132.855 30.2512C133.509 30.2512 134.084 30.1075 134.567 29.8331C135.05 29.5587 135.442 29.1929 135.756 28.7487C136.069 28.3045 136.291 27.795 136.448 27.2332C136.592 26.6714 136.67 26.0965 136.67 25.5086C136.67 24.9337 136.592 24.372 136.448 23.7971C136.305 23.2222 136.069 22.7258 135.756 22.2816C135.442 21.8373 135.05 21.4846 134.567 21.2102C134.084 20.9359 133.509 20.7922 132.855 20.7922C132.202 20.7922 131.627 20.9359 131.144 21.2102C130.66 21.4846 130.269 21.8504 129.955 22.2816C129.641 22.7258 129.419 23.2222 129.263 23.7971C129.119 24.372 129.04 24.9337 129.04 25.5086C129.04 26.0965 129.119 26.6714 129.263 27.2332C129.406 27.795 129.641 28.3045 129.955 28.7487C130.269 29.1929 130.66 29.5587 131.144 29.8331C131.627 30.1205 132.202 30.2512 132.855 30.2512ZM140.485 18.8193H142.719V14.7953H145.672V18.8193H148.337V21.0273H145.672V28.1869C145.672 28.5005 145.685 28.7618 145.711 28.997C145.737 29.2191 145.803 29.415 145.894 29.5718C145.986 29.7286 146.129 29.8462 146.325 29.9246C146.521 30.003 146.77 30.0422 147.109 30.0422C147.318 30.0422 147.527 30.0422 147.736 30.0291C147.945 30.016 148.154 29.9899 148.364 29.9376V32.224C148.037 32.2632 147.71 32.2893 147.41 32.3285C147.096 32.3677 146.783 32.3808 146.456 32.3808C145.672 32.3808 145.045 32.3024 144.575 32.1587C144.104 32.015 143.725 31.7929 143.464 31.5054C143.19 31.218 143.02 30.8652 142.915 30.4341C142.824 30.003 142.759 29.5065 142.746 28.9578V21.0535H140.511V18.8193H140.485Z" fill="#F5F3EF"/>
<path d="M35.7812 13.7102H22.2459L18.0651 0.828125L13.8712 13.7102L0.335938 13.6971L11.2974 21.6668L7.10359 34.5358L18.0651 26.5792L29.0135 34.5358L24.8328 21.6668L35.7812 13.7102Z" fill="#00B67A"/>
<path d="M25.7708 24.5776L24.8302 21.6641L18.0625 26.5765L25.7708 24.5776Z" fill="#005128"/>
</g>
<defs>
<clipPath id="clip0_4538_54630">
<rect width="148" height="36.3468" fill="white" transform="translate(0.335938 0.828125)"/>
</clipPath>
</defs>
</svg>
