<svg width="193" height="370" viewBox="0 0 193 370" fill="none" xmlns="http://www.w3.org/2000/svg">
<path d="M192.358 0.53125C192.358 19.917 192.358 39.3027 192.358 59.1347C190.346 59.1347 188.711 59.1347 187.076 59.1347C162.465 59.1347 137.835 59.1843 113.223 59.0851C109.055 59.0686 105.714 60.1098 102.426 62.5557C81.8564 77.8263 61.143 92.9316 40.4656 108.087C39.6392 108.682 38.7947 109.243 37.6809 110.004C27.8362 100.369 20.1653 89.5933 14.3806 77.6445C4.80538 57.9117 1.64361 36.989 0.942981 15.6201C0.781298 10.596 0.835144 5.57187 0.78125 0.53125C64.6461 0.53125 128.511 0.53125 192.358 0.53125Z" fill="#525252" fill-opacity="0.8"/>
<path d="M110.339 82.6406C133.146 82.6406 155.588 82.6406 178.245 82.6406C178.394 83.3028 178.676 83.9824 178.676 84.6445C178.66 100.275 178.66 115.888 178.494 131.518C178.477 133.487 177.814 135.613 176.918 137.373C171.876 147.393 166.817 157.395 161.459 167.24C158.026 173.548 156.218 180.082 156.235 187.383C156.284 220.7 156.152 254 156.102 287.317C156.052 329.468 133.71 358.411 94.4491 367.525C83.0872 370.156 71.6258 370.016 60.1311 369.999C54.1268 369.982 48.1223 369.999 41.8359 369.999C41.8359 353.759 41.8359 337.954 41.8359 321.627C47.4588 321.627 52.8993 321.627 58.3232 321.627C64.4934 321.627 70.6637 321.644 76.8506 321.627C94.5652 321.54 106.839 310.492 109.609 292.039C110.074 288.989 110.306 285.888 110.306 282.803C110.356 257.154 110.339 231.504 110.339 205.854C110.339 167.693 110.339 129.532 110.339 91.3881C110.339 88.6 110.339 85.8294 110.339 82.6406Z" fill="#525252" fill-opacity="0.4"/>
</svg>
