<svg width="330" height="637" viewBox="0 0 330 637" fill="none" xmlns="http://www.w3.org/2000/svg">
<g opacity="0.4">
<path d="M329.84 0C329.84 33.3766 329.84 66.7532 329.84 100.898C326.375 100.898 323.561 100.898 320.746 100.898C278.372 100.898 235.966 100.983 193.592 100.813C186.416 100.784 180.663 102.577 175.003 106.788C139.588 133.08 103.926 159.087 68.3249 185.179C66.9021 186.203 65.4482 187.171 63.5305 188.48C46.5808 171.891 33.3737 153.339 23.4142 132.767C6.92838 98.7925 1.48473 62.7697 0.278455 25.9786C8.30534e-05 17.3285 0.0927906 8.67849 0 0C109.957 0 219.914 0 329.84 0Z" fill="white" fill-opacity="0.8"/>
<path d="M188.622 141.359C227.889 141.359 266.527 141.359 305.537 141.359C305.794 142.499 306.279 143.669 306.279 144.81C306.251 171.72 306.251 198.601 305.965 225.512C305.937 228.903 304.794 232.563 303.252 235.593C294.571 252.843 285.861 270.064 276.637 287.015C270.725 297.875 267.613 309.125 267.641 321.696C267.727 379.058 267.498 436.39 267.413 493.752C267.327 566.325 228.86 616.157 161.264 631.847C141.702 636.377 121.969 636.137 102.179 636.107C91.8409 636.077 81.503 636.107 70.6797 636.107C70.6797 608.146 70.6797 580.935 70.6797 552.824C80.3607 552.824 89.7276 552.824 99.0659 552.824C109.689 552.824 120.313 552.854 130.965 552.824C161.464 552.674 182.597 533.654 187.366 501.882C188.166 496.632 188.565 491.292 188.565 485.982C188.651 441.82 188.622 397.659 188.622 353.497C188.622 287.795 188.622 222.092 188.622 156.42C188.622 151.62 188.622 146.85 188.622 141.359Z" fill="white" fill-opacity="0.4"/>
</g>
</svg>
